<mxfile host="app.diagrams.net" agent="Mozilla/5.0 (Windows NT 10.0; Win64; x64) AppleWebKit/537.36 (KHTML, like Gecko) Chrome/135.0.0.0 Safari/537.36" version="26.2.14" pages="4">
  <diagram name="Module1 UI" id="F5spSfFioODkUeQKSEWU">
    <mxGraphModel dx="1426" dy="743" grid="1" gridSize="10" guides="1" tooltips="1" connect="1" arrows="1" fold="1" page="1" pageScale="1" pageWidth="850" pageHeight="1100" math="0" shadow="0">
      <root>
        <mxCell id="0" />
        <mxCell id="1" parent="0" />
        <mxCell id="zZWrVFJlww_p7RSvlpfY-1" value="" style="rounded=0;whiteSpace=wrap;html=1;" vertex="1" parent="1">
          <mxGeometry x="130" y="200" width="620" height="780" as="geometry" />
        </mxCell>
        <mxCell id="zZWrVFJlww_p7RSvlpfY-2" value="&lt;font style=&quot;font-size: 20px;&quot;&gt;Message Converter using IRIS for Health&lt;/font&gt;" style="text;html=1;align=center;verticalAlign=middle;whiteSpace=wrap;rounded=0;" vertex="1" parent="1">
          <mxGeometry x="60" y="40" width="740" height="80" as="geometry" />
        </mxCell>
        <mxCell id="zZWrVFJlww_p7RSvlpfY-3" value="" style="whiteSpace=wrap;html=1;aspect=fixed;" vertex="1" parent="1">
          <mxGeometry x="170" y="300" width="220" height="220" as="geometry" />
        </mxCell>
        <mxCell id="zZWrVFJlww_p7RSvlpfY-4" value="" style="whiteSpace=wrap;html=1;aspect=fixed;" vertex="1" parent="1">
          <mxGeometry x="490" y="300" width="220" height="220" as="geometry" />
        </mxCell>
        <mxCell id="zZWrVFJlww_p7RSvlpfY-6" value="R3" style="text;html=1;align=center;verticalAlign=middle;whiteSpace=wrap;rounded=0;" vertex="1" parent="1">
          <mxGeometry x="180" y="270" width="60" height="30" as="geometry" />
        </mxCell>
        <mxCell id="zZWrVFJlww_p7RSvlpfY-7" value="R4" style="text;html=1;align=center;verticalAlign=middle;whiteSpace=wrap;rounded=0;" vertex="1" parent="1">
          <mxGeometry x="260" y="270" width="60" height="30" as="geometry" />
        </mxCell>
        <mxCell id="zZWrVFJlww_p7RSvlpfY-8" value="R5" style="text;html=1;align=center;verticalAlign=middle;whiteSpace=wrap;rounded=0;" vertex="1" parent="1">
          <mxGeometry x="340" y="270" width="60" height="30" as="geometry" />
        </mxCell>
        <mxCell id="zZWrVFJlww_p7RSvlpfY-9" value="" style="ellipse;whiteSpace=wrap;html=1;aspect=fixed;" vertex="1" parent="1">
          <mxGeometry x="260" y="280" width="10" height="10" as="geometry" />
        </mxCell>
        <mxCell id="zZWrVFJlww_p7RSvlpfY-10" value="" style="ellipse;whiteSpace=wrap;html=1;aspect=fixed;" vertex="1" parent="1">
          <mxGeometry x="180" y="280" width="10" height="10" as="geometry" />
        </mxCell>
        <mxCell id="zZWrVFJlww_p7RSvlpfY-11" value="" style="ellipse;whiteSpace=wrap;html=1;aspect=fixed;" vertex="1" parent="1">
          <mxGeometry x="340" y="280" width="10" height="10" as="geometry" />
        </mxCell>
        <mxCell id="zZWrVFJlww_p7RSvlpfY-13" value="" style="rounded=0;whiteSpace=wrap;html=1;" vertex="1" parent="1">
          <mxGeometry x="390" y="550" width="100" height="40" as="geometry" />
        </mxCell>
        <mxCell id="zZWrVFJlww_p7RSvlpfY-14" value="Convert" style="text;html=1;align=center;verticalAlign=middle;whiteSpace=wrap;rounded=0;" vertex="1" parent="1">
          <mxGeometry x="410" y="555" width="60" height="30" as="geometry" />
        </mxCell>
        <mxCell id="zZWrVFJlww_p7RSvlpfY-15" value="&lt;font style=&quot;font-size: 18px;&quot;&gt;Module 1 FHIR to CCDA&lt;/font&gt;" style="text;html=1;align=left;verticalAlign=middle;whiteSpace=wrap;rounded=0;" vertex="1" parent="1">
          <mxGeometry x="130" y="130" width="400" height="40" as="geometry" />
        </mxCell>
        <mxCell id="vCR3qqiksBFhFhFxqqjO-1" value="" style="whiteSpace=wrap;html=1;aspect=fixed;" vertex="1" parent="1">
          <mxGeometry x="290" y="640" width="300" height="300" as="geometry" />
        </mxCell>
        <mxCell id="vCR3qqiksBFhFhFxqqjO-2" value="CCDA Viewer" style="text;html=1;align=center;verticalAlign=middle;whiteSpace=wrap;rounded=0;" vertex="1" parent="1">
          <mxGeometry x="362.5" y="660" width="155" height="20" as="geometry" />
        </mxCell>
      </root>
    </mxGraphModel>
  </diagram>
  <diagram id="N1-K2JubSZKuX_vLQk9Q" name="Module 1 Technical Design">
    <mxGraphModel dx="1426" dy="743" grid="1" gridSize="10" guides="1" tooltips="1" connect="1" arrows="1" fold="1" page="1" pageScale="1" pageWidth="850" pageHeight="1100" math="0" shadow="0">
      <root>
        <mxCell id="0" />
        <mxCell id="1" parent="0" />
        <mxCell id="dXaDechWNGmq8Es5pLFL-2" value="UI Screen" style="swimlane;whiteSpace=wrap;html=1;" vertex="1" parent="1">
          <mxGeometry x="40" y="170" width="360" height="250" as="geometry" />
        </mxCell>
        <mxCell id="dXaDechWNGmq8Es5pLFL-4" value="FHIR Resource" style="rounded=0;whiteSpace=wrap;html=1;" vertex="1" parent="dXaDechWNGmq8Es5pLFL-2">
          <mxGeometry x="20" y="50" width="120" height="60" as="geometry" />
        </mxCell>
        <mxCell id="dXaDechWNGmq8Es5pLFL-14" value="CCDA" style="rounded=0;whiteSpace=wrap;html=1;" vertex="1" parent="dXaDechWNGmq8Es5pLFL-2">
          <mxGeometry x="210" y="50" width="120" height="60" as="geometry" />
        </mxCell>
        <mxCell id="qKz6rGsN9EoC3wdZZjlU-1" value="CCDA Viewer" style="rounded=0;whiteSpace=wrap;html=1;" vertex="1" parent="dXaDechWNGmq8Es5pLFL-2">
          <mxGeometry x="110" y="140" width="120" height="60" as="geometry" />
        </mxCell>
        <mxCell id="dXaDechWNGmq8Es5pLFL-3" value="IRIS for Health" style="swimlane;whiteSpace=wrap;html=1;" vertex="1" parent="1">
          <mxGeometry x="30" y="590" width="790" height="180" as="geometry" />
        </mxCell>
        <mxCell id="dXaDechWNGmq8Es5pLFL-10" style="edgeStyle=orthogonalEdgeStyle;rounded=0;orthogonalLoop=1;jettySize=auto;html=1;exitX=1;exitY=0.5;exitDx=0;exitDy=0;entryX=0;entryY=0.5;entryDx=0;entryDy=0;" edge="1" parent="dXaDechWNGmq8Es5pLFL-3" source="dXaDechWNGmq8Es5pLFL-5" target="dXaDechWNGmq8Es5pLFL-7">
          <mxGeometry relative="1" as="geometry" />
        </mxCell>
        <mxCell id="dXaDechWNGmq8Es5pLFL-5" value="FHIR Resource Receiver Rest Service" style="rounded=0;whiteSpace=wrap;html=1;" vertex="1" parent="dXaDechWNGmq8Es5pLFL-3">
          <mxGeometry x="30" y="40" width="180" height="40" as="geometry" />
        </mxCell>
        <mxCell id="dXaDechWNGmq8Es5pLFL-12" style="edgeStyle=orthogonalEdgeStyle;rounded=0;orthogonalLoop=1;jettySize=auto;html=1;exitX=0.5;exitY=1;exitDx=0;exitDy=0;entryX=0.5;entryY=0;entryDx=0;entryDy=0;" edge="1" parent="dXaDechWNGmq8Es5pLFL-3" source="dXaDechWNGmq8Es5pLFL-7" target="dXaDechWNGmq8Es5pLFL-8">
          <mxGeometry relative="1" as="geometry" />
        </mxCell>
        <mxCell id="dXaDechWNGmq8Es5pLFL-7" value="Validate FHIR" style="rounded=0;whiteSpace=wrap;html=1;" vertex="1" parent="dXaDechWNGmq8Es5pLFL-3">
          <mxGeometry x="300" y="40" width="180" height="40" as="geometry" />
        </mxCell>
        <mxCell id="dXaDechWNGmq8Es5pLFL-20" style="edgeStyle=orthogonalEdgeStyle;rounded=0;orthogonalLoop=1;jettySize=auto;html=1;exitX=1;exitY=0.5;exitDx=0;exitDy=0;entryX=0.5;entryY=1;entryDx=0;entryDy=0;" edge="1" parent="dXaDechWNGmq8Es5pLFL-3" source="dXaDechWNGmq8Es5pLFL-8" target="dXaDechWNGmq8Es5pLFL-19">
          <mxGeometry relative="1" as="geometry" />
        </mxCell>
        <mxCell id="dXaDechWNGmq8Es5pLFL-8" value="Convert FHIR to CCDA" style="rounded=0;whiteSpace=wrap;html=1;" vertex="1" parent="dXaDechWNGmq8Es5pLFL-3">
          <mxGeometry x="300" y="110" width="180" height="40" as="geometry" />
        </mxCell>
        <mxCell id="dXaDechWNGmq8Es5pLFL-19" value="Audit" style="rounded=0;whiteSpace=wrap;html=1;" vertex="1" parent="dXaDechWNGmq8Es5pLFL-3">
          <mxGeometry x="550" y="40" width="180" height="40" as="geometry" />
        </mxCell>
        <mxCell id="dXaDechWNGmq8Es5pLFL-15" value="Post" style="text;html=1;align=center;verticalAlign=middle;whiteSpace=wrap;rounded=0;" vertex="1" parent="1">
          <mxGeometry x="50" y="430" width="60" height="30" as="geometry" />
        </mxCell>
        <mxCell id="dXaDechWNGmq8Es5pLFL-16" style="edgeStyle=orthogonalEdgeStyle;rounded=0;orthogonalLoop=1;jettySize=auto;html=1;exitX=0.5;exitY=0;exitDx=0;exitDy=0;entryX=0.583;entryY=1;entryDx=0;entryDy=0;entryPerimeter=0;" edge="1" parent="1" source="dXaDechWNGmq8Es5pLFL-5" target="dXaDechWNGmq8Es5pLFL-14">
          <mxGeometry relative="1" as="geometry">
            <Array as="points">
              <mxPoint x="160" y="460" />
              <mxPoint x="320" y="460" />
            </Array>
          </mxGeometry>
        </mxCell>
        <mxCell id="dXaDechWNGmq8Es5pLFL-17" value="Response" style="text;html=1;align=center;verticalAlign=middle;whiteSpace=wrap;rounded=0;" vertex="1" parent="1">
          <mxGeometry x="220" y="430" width="60" height="30" as="geometry" />
        </mxCell>
        <mxCell id="dXaDechWNGmq8Es5pLFL-18" style="edgeStyle=orthogonalEdgeStyle;rounded=0;orthogonalLoop=1;jettySize=auto;html=1;exitX=0.5;exitY=1;exitDx=0;exitDy=0;entryX=0;entryY=0.5;entryDx=0;entryDy=0;" edge="1" parent="1" source="dXaDechWNGmq8Es5pLFL-4" target="dXaDechWNGmq8Es5pLFL-5">
          <mxGeometry relative="1" as="geometry" />
        </mxCell>
      </root>
    </mxGraphModel>
  </diagram>
  <diagram id="Alscj_arblZhwwRK2W8_" name="Module2 UI">
    <mxGraphModel dx="1426" dy="743" grid="1" gridSize="10" guides="1" tooltips="1" connect="1" arrows="1" fold="1" page="1" pageScale="1" pageWidth="850" pageHeight="1100" math="0" shadow="0">
      <root>
        <mxCell id="0" />
        <mxCell id="1" parent="0" />
        <mxCell id="jweJQiyJh_HocIpIaLF9-1" value="" style="rounded=0;whiteSpace=wrap;html=1;" vertex="1" parent="1">
          <mxGeometry x="130" y="200" width="480" height="650" as="geometry" />
        </mxCell>
        <mxCell id="jweJQiyJh_HocIpIaLF9-2" value="&lt;font style=&quot;font-size: 20px;&quot;&gt;Message Converter using IRIS for Health&lt;/font&gt;" style="text;html=1;align=center;verticalAlign=middle;whiteSpace=wrap;rounded=0;" vertex="1" parent="1">
          <mxGeometry x="60" y="40" width="740" height="80" as="geometry" />
        </mxCell>
        <mxCell id="jweJQiyJh_HocIpIaLF9-3" value="" style="whiteSpace=wrap;html=1;aspect=fixed;" vertex="1" parent="1">
          <mxGeometry x="170" y="300" width="220" height="220" as="geometry" />
        </mxCell>
        <mxCell id="jweJQiyJh_HocIpIaLF9-5" value="R3" style="text;html=1;align=center;verticalAlign=middle;whiteSpace=wrap;rounded=0;" vertex="1" parent="1">
          <mxGeometry x="180" y="270" width="60" height="30" as="geometry" />
        </mxCell>
        <mxCell id="jweJQiyJh_HocIpIaLF9-6" value="R4" style="text;html=1;align=center;verticalAlign=middle;whiteSpace=wrap;rounded=0;" vertex="1" parent="1">
          <mxGeometry x="260" y="270" width="60" height="30" as="geometry" />
        </mxCell>
        <mxCell id="jweJQiyJh_HocIpIaLF9-7" value="R5" style="text;html=1;align=center;verticalAlign=middle;whiteSpace=wrap;rounded=0;" vertex="1" parent="1">
          <mxGeometry x="340" y="270" width="60" height="30" as="geometry" />
        </mxCell>
        <mxCell id="jweJQiyJh_HocIpIaLF9-8" value="" style="ellipse;whiteSpace=wrap;html=1;aspect=fixed;" vertex="1" parent="1">
          <mxGeometry x="260" y="280" width="10" height="10" as="geometry" />
        </mxCell>
        <mxCell id="jweJQiyJh_HocIpIaLF9-9" value="" style="ellipse;whiteSpace=wrap;html=1;aspect=fixed;" vertex="1" parent="1">
          <mxGeometry x="180" y="280" width="10" height="10" as="geometry" />
        </mxCell>
        <mxCell id="jweJQiyJh_HocIpIaLF9-10" value="" style="ellipse;whiteSpace=wrap;html=1;aspect=fixed;" vertex="1" parent="1">
          <mxGeometry x="340" y="280" width="10" height="10" as="geometry" />
        </mxCell>
        <mxCell id="jweJQiyJh_HocIpIaLF9-13" value="&lt;font style=&quot;font-size: 18px;&quot;&gt;Module 2 Multiple FHIR Resources to CCDA&lt;/font&gt;" style="text;html=1;align=left;verticalAlign=middle;whiteSpace=wrap;rounded=0;" vertex="1" parent="1">
          <mxGeometry x="130" y="130" width="400" height="40" as="geometry" />
        </mxCell>
        <mxCell id="YK-EJig3gqQW72LW7HXJ-1" value="Add New Resource" style="rounded=0;whiteSpace=wrap;html=1;" vertex="1" parent="1">
          <mxGeometry x="460" y="320" width="110" height="60" as="geometry" />
        </mxCell>
        <mxCell id="YK-EJig3gqQW72LW7HXJ-2" value="Convert to CDA" style="rounded=0;whiteSpace=wrap;html=1;" vertex="1" parent="1">
          <mxGeometry x="460" y="420" width="110" height="60" as="geometry" />
        </mxCell>
        <mxCell id="LqmWyRLOh4w_71Ccswvw-1" value="" style="whiteSpace=wrap;html=1;aspect=fixed;" vertex="1" parent="1">
          <mxGeometry x="220" y="530" width="300" height="300" as="geometry" />
        </mxCell>
        <mxCell id="svu4l3BCxlzwT4dOQuHU-1" value="CCDA Viewer" style="text;html=1;align=center;verticalAlign=middle;whiteSpace=wrap;rounded=0;" vertex="1" parent="1">
          <mxGeometry x="292.5" y="550" width="155" height="20" as="geometry" />
        </mxCell>
      </root>
    </mxGraphModel>
  </diagram>
  <diagram id="r5d94NfBLdCvv6o1_y0C" name="Module2 Technical Design">
    <mxGraphModel dx="1426" dy="743" grid="1" gridSize="10" guides="1" tooltips="1" connect="1" arrows="1" fold="1" page="1" pageScale="1" pageWidth="850" pageHeight="1100" math="0" shadow="0">
      <root>
        <mxCell id="0" />
        <mxCell id="1" parent="0" />
        <mxCell id="7UV6bgTidBEqPfXgMLC--1" value="UI Screen" style="swimlane;whiteSpace=wrap;html=1;" vertex="1" parent="1">
          <mxGeometry x="40" y="170" width="360" height="250" as="geometry" />
        </mxCell>
        <mxCell id="7UV6bgTidBEqPfXgMLC--2" value="FHIR Resource" style="rounded=0;whiteSpace=wrap;html=1;" vertex="1" parent="7UV6bgTidBEqPfXgMLC--1">
          <mxGeometry x="20" y="50" width="120" height="60" as="geometry" />
        </mxCell>
        <mxCell id="7UV6bgTidBEqPfXgMLC--3" value="CCDA" style="rounded=0;whiteSpace=wrap;html=1;" vertex="1" parent="7UV6bgTidBEqPfXgMLC--1">
          <mxGeometry x="210" y="50" width="120" height="60" as="geometry" />
        </mxCell>
        <mxCell id="7UV6bgTidBEqPfXgMLC--4" value="CCDA Viewer" style="rounded=0;whiteSpace=wrap;html=1;" vertex="1" parent="7UV6bgTidBEqPfXgMLC--1">
          <mxGeometry x="110" y="140" width="120" height="60" as="geometry" />
        </mxCell>
        <mxCell id="7UV6bgTidBEqPfXgMLC--5" value="IRIS for Health" style="swimlane;whiteSpace=wrap;html=1;" vertex="1" parent="1">
          <mxGeometry x="30" y="590" width="790" height="180" as="geometry" />
        </mxCell>
        <mxCell id="7UV6bgTidBEqPfXgMLC--6" style="edgeStyle=orthogonalEdgeStyle;rounded=0;orthogonalLoop=1;jettySize=auto;html=1;exitX=1;exitY=0.5;exitDx=0;exitDy=0;entryX=0;entryY=0.5;entryDx=0;entryDy=0;" edge="1" parent="7UV6bgTidBEqPfXgMLC--5" source="7UV6bgTidBEqPfXgMLC--7" target="7UV6bgTidBEqPfXgMLC--9">
          <mxGeometry relative="1" as="geometry" />
        </mxCell>
        <mxCell id="7UV6bgTidBEqPfXgMLC--7" value="FHIR Resource Receiver RMQ Service" style="rounded=0;whiteSpace=wrap;html=1;" vertex="1" parent="7UV6bgTidBEqPfXgMLC--5">
          <mxGeometry x="30" y="40" width="180" height="40" as="geometry" />
        </mxCell>
        <mxCell id="7UV6bgTidBEqPfXgMLC--8" style="edgeStyle=orthogonalEdgeStyle;rounded=0;orthogonalLoop=1;jettySize=auto;html=1;exitX=0.5;exitY=1;exitDx=0;exitDy=0;entryX=0.5;entryY=0;entryDx=0;entryDy=0;" edge="1" parent="7UV6bgTidBEqPfXgMLC--5" source="7UV6bgTidBEqPfXgMLC--9" target="7UV6bgTidBEqPfXgMLC--11">
          <mxGeometry relative="1" as="geometry" />
        </mxCell>
        <mxCell id="7UV6bgTidBEqPfXgMLC--9" value="Validate FHIR" style="rounded=0;whiteSpace=wrap;html=1;" vertex="1" parent="7UV6bgTidBEqPfXgMLC--5">
          <mxGeometry x="300" y="40" width="180" height="40" as="geometry" />
        </mxCell>
        <mxCell id="7UV6bgTidBEqPfXgMLC--10" style="edgeStyle=orthogonalEdgeStyle;rounded=0;orthogonalLoop=1;jettySize=auto;html=1;exitX=1;exitY=0.5;exitDx=0;exitDy=0;entryX=0.5;entryY=1;entryDx=0;entryDy=0;" edge="1" parent="7UV6bgTidBEqPfXgMLC--5" source="7UV6bgTidBEqPfXgMLC--11" target="7UV6bgTidBEqPfXgMLC--12">
          <mxGeometry relative="1" as="geometry" />
        </mxCell>
        <mxCell id="7UV6bgTidBEqPfXgMLC--11" value="Convert FHIR to CCDA" style="rounded=0;whiteSpace=wrap;html=1;" vertex="1" parent="7UV6bgTidBEqPfXgMLC--5">
          <mxGeometry x="300" y="110" width="180" height="40" as="geometry" />
        </mxCell>
        <mxCell id="7UV6bgTidBEqPfXgMLC--12" value="Audit" style="rounded=0;whiteSpace=wrap;html=1;" vertex="1" parent="7UV6bgTidBEqPfXgMLC--5">
          <mxGeometry x="550" y="40" width="180" height="40" as="geometry" />
        </mxCell>
        <mxCell id="7UV6bgTidBEqPfXgMLC--13" value="Post" style="text;html=1;align=center;verticalAlign=middle;whiteSpace=wrap;rounded=0;" vertex="1" parent="1">
          <mxGeometry x="50" y="430" width="60" height="30" as="geometry" />
        </mxCell>
        <mxCell id="7UV6bgTidBEqPfXgMLC--14" style="edgeStyle=orthogonalEdgeStyle;rounded=0;orthogonalLoop=1;jettySize=auto;html=1;exitX=0.5;exitY=0;exitDx=0;exitDy=0;entryX=0.583;entryY=1;entryDx=0;entryDy=0;entryPerimeter=0;" edge="1" parent="1" source="7UV6bgTidBEqPfXgMLC--7" target="7UV6bgTidBEqPfXgMLC--3">
          <mxGeometry relative="1" as="geometry">
            <Array as="points">
              <mxPoint x="160" y="460" />
              <mxPoint x="320" y="460" />
            </Array>
          </mxGeometry>
        </mxCell>
        <mxCell id="7UV6bgTidBEqPfXgMLC--15" value="Response" style="text;html=1;align=center;verticalAlign=middle;whiteSpace=wrap;rounded=0;" vertex="1" parent="1">
          <mxGeometry x="220" y="430" width="60" height="30" as="geometry" />
        </mxCell>
        <mxCell id="7UV6bgTidBEqPfXgMLC--16" style="edgeStyle=orthogonalEdgeStyle;rounded=0;orthogonalLoop=1;jettySize=auto;html=1;exitX=0.5;exitY=1;exitDx=0;exitDy=0;entryX=0;entryY=0.5;entryDx=0;entryDy=0;" edge="1" parent="1" source="7UV6bgTidBEqPfXgMLC--2" target="7UV6bgTidBEqPfXgMLC--7">
          <mxGeometry relative="1" as="geometry" />
        </mxCell>
      </root>
    </mxGraphModel>
  </diagram>
</mxfile>
